<svg width="24" height="24" viewBox="0 0 24 24" fill="none" xmlns="http://www.w3.org/2000/svg">
<path d="M13.7671 6.08077C14.137 5.71086 14.7318 5.70597 15.0955 6.06985L17.9305 8.90596C18.2942 9.26984 18.2892 9.86469 17.9192 10.2346L7.17852 20.9745C7.04628 21.1067 6.87851 21.1975 6.69636 21.2354L3.11634 21.9797C2.45796 22.1165 1.88337 21.5417 2.02039 20.8833L2.76543 17.3028C2.80334 17.1207 2.89414 16.9529 3.02638 16.8207L13.7671 6.08077Z" fill="#C0C2C2"/>
<path d="M17.5671 2.28066C17.937 1.91075 18.5318 1.90586 18.8955 2.26974L21.7305 5.10586C22.0942 5.46973 22.0892 6.06458 21.7192 6.43449L20.3139 7.83969C19.944 8.2096 19.3492 8.21449 18.9855 7.85062L16.1505 5.0145C15.7868 4.65062 15.7918 4.05578 16.1618 3.68587L17.5671 2.28066Z" fill="#C0C2C2"/>
</svg>
